<svg width="56" height="56" viewBox="0 0 56 56" fill="none" xmlns="http://www.w3.org/2000/svg">
<path d="M28.0001 0L30.0924 14.1961L36.2764 1.24746L34.0914 15.4296L43.8172 4.87897L37.5493 17.787L49.9527 10.5719L40.1585 21.0589L54.1377 17.8203L41.6874 24.9546L56 25.9802L42 29.1277L55.3746 34.3266L41.0689 33.2078L52.3167 42.1179L38.9765 36.832L47.0983 48.6616L35.9086 39.6783L40.1828 53.3765L32.1382 41.4941L32.185 55.8435L28.0001 42.1179L23.8151 55.8435L23.8619 41.4941L15.8172 53.3765L20.0915 39.6783L8.90178 48.6616L17.0237 36.832L3.68331 42.1179L14.9312 33.2078L0.625466 34.3266L14 29.1277L0 25.9802L14.3128 24.9546L1.86244 17.8203L15.8417 21.0589L6.04736 10.5719L18.4508 17.787L12.1828 4.87897L21.9087 15.4296L19.7237 1.24746L25.9077 14.1961L28.0001 0Z" fill="white"/>
</svg>
