<svg width="47" height="47" viewBox="0 0 47 47" fill="none" xmlns="http://www.w3.org/2000/svg">
<path d="M46.552 8.47374C40.2908 2.13694 33.3023 -1.11002 30.9427 1.22139C28.5832 3.5528 31.7461 10.5797 38.0073 16.9165C41.5163 20.4678 45.1706 22.5467 46.1694 21.5598C47.1682 20.5729 45.1333 16.8939 41.6244 13.3426C35.3632 7.00578 28.3747 3.75882 26.0151 6.09023C23.6556 8.42165 26.8184 15.4486 33.0796 21.7854C36.5886 25.3367 40.2429 27.4156 41.2418 26.4286C42.2406 25.4417 40.2057 21.7627 36.6968 18.2114C30.4355 11.8746 23.4353 8.63927 21.0613 10.985C18.6873 13.3307 21.8384 20.3692 28.0996 26.7061C31.6086 30.2574 35.2629 32.3362 36.2618 31.3493C37.2606 30.3623 35.2256 26.6834 31.7167 23.1321C25.4554 16.7953 18.4671 13.5483 16.1075 15.8797C13.7479 18.2111 16.9109 25.238 23.1721 31.5748C26.6811 35.1261 30.3353 37.2051 31.3341 36.2181C32.333 35.2312 30.2981 31.5522 26.7892 28.0009C20.5279 21.6641 13.5394 18.4172 11.1798 20.7486C8.82027 23.08 11.9832 30.1069 18.2445 36.4437C21.7534 39.995 25.4077 42.0738 26.4065 41.087C27.4053 40.1001 25.3705 36.4211 21.8615 32.8698C15.6003 26.533 8.61174 23.2861 6.25233 25.6174C3.89277 27.9488 7.05558 34.9758 13.3168 41.3126C16.8258 44.8639 20.4801 46.9427 21.479 45.9558C22.4777 44.969 20.4428 41.29 16.9339 37.7386C10.6726 31.4018 3.6725 28.1664 1.2985 30.5121C-1.07551 32.8578 2.07556 39.8964 8.33679 46.2332" stroke="white" stroke-width="0.634525" stroke-linecap="round"/>
</svg>
